<svg id="Grupo_858" data-name="Grupo 858" xmlns="http://www.w3.org/2000/svg" xmlns:xlink="http://www.w3.org/1999/xlink" width="20.761" height="13.298" viewBox="0 0 20.761 13.298">
  <defs>
    <clipPath id="clip-path">
      <rect id="Rectángulo_255" data-name="Rectángulo 255" width="20.761" height="13.298" fill="#e1cc9e"/>
    </clipPath>
  </defs>
  <g id="Grupo_854" data-name="Grupo 854" transform="translate(0 0)" clip-path="url(#clip-path)">
    <path id="Trazado_858" data-name="Trazado 858" d="M0,8.41C0,4.152,3.574,1,9.723,0l.368,1.209c-3.942,1.367-5.834,3.364-6.1,5.519a2.7,2.7,0,0,1,1.577-.42A3.045,3.045,0,0,1,8.515,9.566,3.714,3.714,0,0,1,4.625,13.3C1.734,13.3,0,11.248,0,8.41m10.67,0C10.67,4.152,14.244,1,20.393,0l.368,1.209c-3.995,1.367-5.834,3.364-6.15,5.519a2.981,2.981,0,0,1,1.577-.42,3.053,3.053,0,0,1,3,3.259A3.729,3.729,0,0,1,15.242,13.3c-2.838,0-4.573-2.05-4.573-4.888" transform="translate(0 0)" fill="#e1cc9e"/>
  </g>
</svg>
