<svg xmlns="http://www.w3.org/2000/svg" xmlns:xlink="http://www.w3.org/1999/xlink" width="33.721" height="21.598" viewBox="0 0 33.721 21.598">
  <defs>
    <clipPath id="clip-path">
      <rect id="Rectángulo_255" data-name="Rectángulo 255" width="33.721" height="21.598" fill="#e1cc9e"/>
    </clipPath>
  </defs>
  <g id="Grupo_857" data-name="Grupo 857" transform="translate(33.721 21.598) rotate(180)">
    <g id="Grupo_854" data-name="Grupo 854" transform="translate(0 0)" clip-path="url(#clip-path)">
      <path id="Trazado_858" data-name="Trazado 858" d="M0,13.659C0,6.744,5.805,1.622,15.793,0l.6,1.964c-6.4,2.22-9.476,5.464-9.9,8.964a4.39,4.39,0,0,1,2.561-.683,4.946,4.946,0,0,1,4.78,5.293A6.033,6.033,0,0,1,7.512,21.6C2.817,21.6,0,18.269,0,13.659m17.33,0C17.33,6.744,23.135,1.622,33.123,0l.6,1.964c-6.488,2.22-9.476,5.464-9.988,8.964a4.841,4.841,0,0,1,2.561-.683,4.959,4.959,0,0,1,4.866,5.293c0,3.756-2.988,6.061-6.4,6.061-4.61,0-7.427-3.329-7.427-7.939" transform="translate(0 0)" fill="#e1cc9e"/>
    </g>
  </g>
</svg>
