<svg xmlns="http://www.w3.org/2000/svg" xmlns:xlink="http://www.w3.org/1999/xlink" width="707" height="894" viewBox="0 0 707 894">
  <defs>
    <clipPath id="clip-path">
      <rect id="Rectángulo_248" data-name="Rectángulo 248" width="105.751" height="49.424" fill="none"/>
    </clipPath>
  </defs>
  <g id="Grupo_875" data-name="Grupo 875" transform="translate(-125 -7651)">
    <g id="Grupo_840" data-name="Grupo 840" transform="translate(125 7651)">
      <g id="Rectángulo_131" data-name="Rectángulo 131" fill="rgba(225,204,158,0.7)" stroke="#000" stroke-width="2">
        <rect width="343" height="277" rx="75" stroke="none"/>
        <rect x="1" y="1" width="341" height="275" rx="74" fill="none"/>
      </g>
      <text id="Book_an_appointment" data-name="Book anappointment" transform="translate(175 130)" font-size="27" font-family="Avenir-Light, Avenir" font-weight="300" letter-spacing="0.05em"><tspan x="-53.109" y="0">Book an</tspan><tspan x="-84.523" y="35">appointment</tspan></text>
      <line id="Línea_15" data-name="Línea 15" x2="103.765" transform="translate(123.117 74.021)" fill="none" stroke="#fff" stroke-width="1"/>
      <line id="Línea_16" data-name="Línea 16" x2="103.765" transform="translate(123.117 202.203)" fill="none" stroke="#fff" stroke-width="1"/>
    </g>
    <g id="Grupo_842" data-name="Grupo 842" transform="translate(489 7962)">
      <g id="Rectángulo_133" data-name="Rectángulo 133" fill="rgba(225,204,158,0.7)" stroke="#000" stroke-width="2">
        <rect width="343" height="277" rx="75" stroke="none"/>
        <rect x="1" y="1" width="341" height="275" rx="74" fill="none"/>
      </g>
      <text id="Follow_up_monthly_for_up_to_3_months" data-name="Follow upmonthly for upto 3 months" transform="translate(171 112)" font-size="27" font-family="Avenir-Light, Avenir" font-weight="300" letter-spacing="0.05em"><tspan x="-64.206" y="0">Follow up</tspan><tspan x="-96.592" y="35">monthly for up</tspan><tspan x="-78.097" y="70">to 3 months</tspan></text>
      <line id="Línea_18" data-name="Línea 18" x2="103.765" transform="translate(119.5 59.577)" fill="none" stroke="#fff" stroke-width="1"/>
      <line id="Línea_17" data-name="Línea 17" x2="103.765" transform="translate(119.5 217.548)" fill="none" stroke="#fff" stroke-width="1"/>
    </g>
    <g id="Grupo_841" data-name="Grupo 841" transform="translate(489 7651)">
      <g id="Rectángulo_132" data-name="Rectángulo 132" fill="rgba(42,79,154,0.8)" stroke="#e1cc9e" stroke-width="2">
        <rect width="343" height="277" rx="75" stroke="none"/>
        <rect x="1" y="1" width="341" height="275" rx="74" fill="none"/>
      </g>
      <text id="Attend_weekly_1-hour_hypnotherapy_sessions" data-name="Attend weekly1-hourhypnotherapysessions" transform="translate(175 95)" fill="#fff" font-size="27" font-family="Avenir-Light, Avenir" font-weight="300" letter-spacing="0.05em"><tspan x="-93.623" y="0">Attend weekly</tspan><tspan x="-42.417" y="35">1-hour</tspan><tspan x="-90.477" y="70">hypnotherapy</tspan><tspan x="-54" y="105">sessions</tspan></text>
      <line id="Línea_23" data-name="Línea 23" x2="103.765" transform="translate(123.5 50)" fill="none" stroke="#fff" stroke-width="1"/>
      <line id="Línea_24" data-name="Línea 24" x2="103.765" transform="translate(123.5 226.125)" fill="none" stroke="#fff" stroke-width="1"/>
    </g>
    <g id="Grupo_843" data-name="Grupo 843" transform="translate(125 7962)">
      <g id="Rectángulo_134" data-name="Rectángulo 134" fill="rgba(42,79,154,0.8)" stroke="#e1cc9e" stroke-width="2">
        <rect width="343" height="277" rx="75" stroke="none"/>
        <rect x="1" y="1" width="341" height="275" rx="74" fill="none"/>
      </g>
      <text id="Build_life_skills_and_success" data-name="Build life skillsand success" transform="translate(172 129)" fill="#fff" font-size="27" font-family="Avenir-Light, Avenir" font-weight="300" letter-spacing="0.05em"><tspan x="-94.284" y="0">Build life skills</tspan><tspan x="-78.273" y="35">and success</tspan></text>
      <line id="Línea_20" data-name="Línea 20" x2="103.765" transform="translate(120.5 74.02)" fill="none" stroke="#fff" stroke-width="1"/>
      <line id="Línea_19" data-name="Línea 19" x2="103.765" transform="translate(120.5 202.202)" fill="none" stroke="#fff" stroke-width="1"/>
    </g>
    <g id="Grupo_844" data-name="Grupo 844" transform="translate(-1384 1829)">
      <g id="Rectángulo_135" data-name="Rectángulo 135" transform="translate(1509 6439)" fill="rgba(225,204,158,0.7)" stroke="#000" stroke-width="2">
        <rect width="343" height="277" rx="75" stroke="none"/>
        <rect x="1" y="1" width="341" height="275" rx="74" fill="none"/>
      </g>
      <text id="Enjoy_lasting_positive_improvements" data-name="Enjoy lastingpositiveimprovements" transform="translate(1681 6551)" font-size="27" font-family="Avenir-Light, Avenir" font-weight="300" letter-spacing="0.05em"><tspan x="-84.132" y="0">Enjoy lasting</tspan><tspan x="-51.489" y="35">positive</tspan><tspan x="-93.204" y="70">improvements</tspan></text>
      <line id="Línea_21" data-name="Línea 21" x2="103.765" transform="translate(1629.5 6512.934)" fill="none" stroke="#fff" stroke-width="1"/>
      <line id="Línea_22" data-name="Línea 22" x2="103.765" transform="translate(1629.5 6640.964)" fill="none" stroke="#fff" stroke-width="1"/>
    </g>
    <g id="Grupo_849" data-name="Grupo 849" transform="translate(433.125 7764.788)" clip-path="url(#clip-path)">
      <path id="Trazado_856" data-name="Trazado 856" d="M60.452,49.179,104.1,27.3a3.21,3.21,0,0,0,1.379-1.383,2.906,2.906,0,0,0-1.379-3.8L60.789.241A3.221,3.221,0,0,0,59.639.008a2.9,2.9,0,0,0-3.108,2.875V18.248H0V31.173H56.531V46.528a2.808,2.808,0,0,0,3.921,2.652" transform="translate(0 0.002)" fill="#fff"/>
    </g>
    <g id="Grupo_853" data-name="Grupo 853" transform="translate(522.875 8125.212) rotate(180)" clip-path="url(#clip-path)">
      <path id="Trazado_857" data-name="Trazado 857" d="M60.452,49.179,104.1,27.3a3.21,3.21,0,0,0,1.379-1.383,2.906,2.906,0,0,0-1.379-3.8L60.789.241A3.221,3.221,0,0,0,59.639.008a2.9,2.9,0,0,0-3.108,2.875V18.248H0V31.173H56.531V46.528a2.808,2.808,0,0,0,3.921,2.652" transform="translate(0 0.002)" fill="#fff"/>
    </g>
    <g id="Grupo_851" data-name="Grupo 851" transform="translate(685.424 7906.125) rotate(90)">
      <g id="Grupo_849-2" data-name="Grupo 849" transform="translate(0 0)" clip-path="url(#clip-path)">
        <path id="Trazado_856-2" data-name="Trazado 856" d="M60.452,49.179,104.1,27.3a3.21,3.21,0,0,0,1.379-1.383,2.906,2.906,0,0,0-1.379-3.8L60.789.241A3.221,3.221,0,0,0,59.639.008a2.9,2.9,0,0,0-3.108,2.875V18.248H0V31.173H56.531V46.528a2.808,2.808,0,0,0,3.921,2.652" transform="translate(0 0.002)" fill="#fff"/>
      </g>
    </g>
    <g id="Grupo_852" data-name="Grupo 852" transform="translate(321.424 8212.125) rotate(90)">
      <g id="Grupo_849-3" data-name="Grupo 849" transform="translate(0 0)" clip-path="url(#clip-path)">
        <path id="Trazado_856-3" data-name="Trazado 856" d="M60.452,49.179,104.1,27.3a3.21,3.21,0,0,0,1.379-1.383,2.906,2.906,0,0,0-1.379-3.8L60.789.241A3.221,3.221,0,0,0,59.639.008a2.9,2.9,0,0,0-3.108,2.875V18.248H0V31.173H56.531V46.528a2.808,2.808,0,0,0,3.921,2.652" transform="translate(0 0.002)" fill="#fff"/>
      </g>
    </g>
  </g>
</svg>
