<?xml version="1.0" encoding="utf-8"?>
<!-- Generator: Adobe Illustrator 26.0.3, SVG Export Plug-In . SVG Version: 6.00 Build 0)  -->
<svg version="1.1" id="Grupo_770" xmlns="http://www.w3.org/2000/svg" xmlns:xlink="http://www.w3.org/1999/xlink" x="0px" y="0px"
	 viewBox="0 0 196.4 229.4" style="enable-background:new 0 0 196.4 229.4;" xml:space="preserve">
<style type="text/css">
	.st0{fill:#051A4F;}
	.st1{opacity:0.3;}
	.st2{clip-path:url(#SVGID_00000026122370196437230840000006933305114868867499_);}
	.st3{clip-path:url(#SVGID_00000140016379260917744520000000187300168499397039_);}
	.st4{clip-path:url(#SVGID_00000039091903347015737890000006558304640273392310_);}
	.st5{opacity:0.81;}
	.st6{clip-path:url(#SVGID_00000163066289607703891150000001612057901356263301_);}
	.st7{opacity:0.5;}
	.st8{clip-path:url(#SVGID_00000110439201238752771450000012802439500409796754_);}
	.st9{clip-path:url(#SVGID_00000126286826426110937370000014224726483387966647_);}
	.st10{clip-path:url(#SVGID_00000179609385343514803420000013297746500963039889_);}
	.st11{clip-path:url(#SVGID_00000132046050359268904080000007728054910451328658_);}
	.st12{clip-path:url(#SVGID_00000014613415207363053570000003486537562848602554_);}
	.st13{opacity:0.88;}
	.st14{clip-path:url(#SVGID_00000001664205471697250030000014048021701403062924_);}
	.st15{clip-path:url(#SVGID_00000021109537655711915220000016571379648777760688_);}
	.st16{clip-path:url(#SVGID_00000170959631395729234830000009865062157845957268_);}
</style>
<g id="Grupo_767">
	<path id="Trazado_760" class="st0" d="M187.3,44.9C178.1,26,157.2,9.6,134,3.1c-21.5-6-43.2-3.3-61.6,7.5l5.7,4
		c20.6-11.2,40.6-9.3,54.2-5.5c21.6,6,40.9,21.1,49.4,38.4c18.1,37,1.1,65.4-18.5,98.4c-2.2,3.7-4.4,7.4-6.6,11.2
		c-13.3,22.9-14.2,52-14,63.5c0,0.4-0.1,0.8-0.4,1c-0.3,0.3-0.6,0.4-1,0.4H76.6c-0.8,0-1.4-0.6-1.4-1.4v-24.1c0-4-3.2-7.2-7.2-7.2
		H37.2c-1.8,0-3.5-0.5-4.9-1.6c-2-1.5-3.2-3.9-3.1-6.4l0.4-40.3c0.1-2.8-2.1-5.2-4.9-5.3l-13.5-0.5c-1.2,0-2.3-0.6-3-1.5
		c-1-1.3-1.2-3-0.4-4.5c6.7-12.2,15.9-30.8,22.3-50c7.6-23.1,22.8-41.8,28-47.8l12,8.5C54.2,55.7,48.2,75.5,47.9,76.5l-0.6,2
		l19.1,6.7l-9.6,24.4c-0.6,1.4,0.1,3.1,1.4,3.8c0.4,0.2,0.9,0.3,1.4,0.3h4c0.3,0,0.5,0.2,0.5,0.5c0,0,0,0,0,0
		c-0.6,10.3-0.7,14.9-0.7,22.2c0,3.6,0,8.1-0.1,14.4c0,1.2,0.3,2.5,1,3.5c1.1,1.6,2.9,2.6,4.8,2.6h47c-3.1,9-5.1,17.8-5.1,24.3h3.6
		c0-13.3,8.8-36.4,17.2-50.1l0,0l0,0c1.2-1.9,2.3-3.6,3.4-5c14.8-19.4,19.8-40,13.9-56.4c-4.3-11.9-14.1-20.1-27.4-23.1
		c-30.3-6.8-43.4,16.1-44.4,18l3.4,1.2c1.9-3.4,13.6-21.6,40.2-15.7c12.1,2.7,20.9,10.1,24.8,20.8c5.5,15.2,0.7,34.5-13.3,53
		c-0.7,0.9-1.4,2-2.1,3l-5.3-14c-0.9-2.5-0.1-5.2,2-6.8c3.9-2.9,11.9-8.8,9.6-24.1c-1.8-12-14.7-20.7-28-19.2
		C95.9,64.4,86.6,72.3,86,82.1c-0.5,7.5,0.7,10.4,1.5,12.4c0.2,0.4,0.3,0.9,0.5,1.3c0.2,0.9-0.5,2-1.1,3c-0.8,1.2-1.9,2.6-1.3,4.2
		c0.5,1.5,1.7,1.5,2.5,1.8c0.4,0.2,0.7,1.1,0.8,1.3c0,0,3,7.7,5.1,10.4c0.5,0.7,2.1,2.6,10.3,1.3c0.4-0.1,0.6,0.2,0.5,0.5l0,0.1
		c-1,10.5-9.8,18.5-20.4,18.5v3.1c12.2,0,22.4-9.2,23.5-21.3l0-0.1c0.1-0.7-0.1-1.4-0.4-2.1c-0.8-1.4-2.3-2.1-3.8-1.8
		c-4.6,0.8-6.9,0.4-7.3-0.1c-1.8-2.3-4.9-10.3-4.9-10.3c-0.4-1.1-0.8-1.7-1.8-2l-1.1-0.4c-0.1,0-0.2-0.2-0.2-0.3c0,0,0,0,0-0.1
		c0.5-0.8,1.8-3,1.9-3.3c0.5-0.9,0.7-1.9,0.8-2.9c-0.1-0.7-0.3-1.4-0.6-2c-0.7-1.7-1.7-4.3-1.3-11c0.5-8.3,8.7-15,19.8-16.3
		c11.7-1.4,23,6.2,24.6,16.5c2,13.4-4.7,18.4-8.4,21.1c-3.2,2.4-4.5,6.7-3,10.5l6.1,16.2c-4.3,7.4-7.9,15.1-10.8,23.1H69.1
		c-1.2,0-2.2-1-2.2-2.2c0,0,0,0,0,0c0.1-6.4,0.1-11,0.1-14.7c0-7.6,0-12.2,0.8-23.6c0.1-1.4-1-2.7-2.4-2.8c-0.1,0-0.1,0-0.2,0h-3.9
		c-0.3,0-0.6-0.3-0.6-0.6c0-0.1,0-0.1,0-0.2l10.5-27.2l-18.4-6.5c2.4-6.5,11.1-27.4,29.2-39.7c18.1-12.2,45.8-10,64.6,5.3
		c36.8,29.8,17.5,63.1,0.5,92.5c-2.9,5-5.7,9.8-8.1,14.4c-12.9,24.8-15,44-15.1,53.2c0,1.1-0.9,1.9-2,1.9H95.9c-1.1,0-1.9-0.9-2-1.9
		l-0.4-25.3c-0.1-3.4-2.8-6.2-6.3-6.2H51.8c-1.5,0-2.7-1.2-2.8-2.7l-0.3-41.5c0-3-2.4-5.4-5.4-5.4h-7.5c-0.7,0-1.3-0.6-1.3-1.3
		c0-0.2,0-0.4,0.1-0.5l10.5-23.2l-4.3-1.5l-10.3,22.9c-1,2.3-0.5,4.9,1.3,6.6c1.1,1,2.6,1.6,4.2,1.6h7.3c0.5,0,0.9,0.4,0.9,0.9
		l0.3,41.5c0,4,3.3,7.2,7.2,7.2h35.5c1,0,1.8,0.8,1.8,1.8l0.4,25.3c0.1,3.5,2.9,6.3,6.4,6.4h26.2c3.5,0,6.4-2.8,6.4-6.4
		c0.1-7.1,1.6-26.3,14.6-51.2c2.4-4.6,5.1-9.3,8-14.3c17-29.4,38.2-66-1.6-98.3c-20.3-16.4-50.3-18.8-70-5.5
		c-1.7,1.1-3.2,2.3-4.8,3.6L57.1,23.4l-1.9,2C54.4,26.3,33.7,48.1,24,77.5c-6.2,18.7-15.2,36.8-21.7,48.8c-1.6,2.8-1.8,6.1-0.6,9
		c1.5,3.7,5.1,6.3,9.1,6.4l12.5,0.5l-0.4,39.3c0,4.3,1.9,8.5,5.3,11.2c2.6,2,5.8,3.1,9.1,3.1H68c0.5,0,0.9,0.4,0.9,0.9v0v24.1
		c0,4.2,3.4,7.6,7.6,7.7h64.7c2.5,0,4.8-1.2,6.2-3.2c1-1.4,1.5-3.1,1.5-4.8c-0.2-11.1,0.7-38.6,13.1-60c2.2-3.8,4.4-7.5,6.6-11.2
		C188.3,116.1,206.9,84.9,187.3,44.9"/>
	<g id="Grupo_742" transform="translate(159.334 1.813)" class="st1">
		<g id="Grupo_741">
			<g>
				<defs>
					<rect id="SVGID_1_" x="-156.6" y="0" width="191" height="224.7"/>
				</defs>
				<clipPath id="SVGID_00000067937723907053245040000012386887385947928981_">
					<use xlink:href="#SVGID_1_"  style="overflow:visible;"/>
				</clipPath>
				<g id="Grupo_740" style="clip-path:url(#SVGID_00000067937723907053245040000012386887385947928981_);">
					<g id="Grupo_739" transform="translate(4.419 4.416)">
						<g>
							<defs>
								<path id="SVGID_00000092441297445694354600000015037428956445733543_" d="M-91.3,4.5L-91.3,4.5L-91.3,4.5L-91.3,4.5z
									 M-85.7,8.4l-5.6-4c-5.6,3.5-10.8,7.8-15.3,12.7l0,0L-89,29.7c1.5-1.2,3.1-2.4,4.8-3.6c19.6-13.3,49.7-10.9,70,5.5
									c39.7,32.2,18.6,68.8,1.6,98.3c-2.9,5-5.6,9.7-8,14.3c-12.9,24.9-14.5,44.1-14.6,51.2c-0.1,3.5-2.9,6.4-6.4,6.4h-26.2
									c-3.5,0-6.4-2.8-6.4-6.4l-0.4-25.3c0-1-0.8-1.7-1.8-1.8h-35.5c-4,0-7.2-3.2-7.2-7.2l-0.3-41.5c0-0.5-0.4-0.9-0.9-0.9h-7.3
									c-1.5,0-3-0.5-4.2-1.6c-1.8-1.7-2.3-4.4-1.3-6.6l10.3-22.9l4.3,1.5l-10.5,23.2c-0.3,0.7,0,1.4,0.7,1.7
									c0.2,0.1,0.4,0.1,0.5,0.1h7.5c3,0,5.4,2.4,5.4,5.4l0.3,41.5c0,1.5,1.2,2.7,2.8,2.7h35.5c3.4,0,6.2,2.8,6.3,6.2l0.4,25.3
									c0,1.1,0.9,1.9,2,1.9h26.2c1.1,0,1.9-0.8,2-1.9c0.1-9.2,2.2-28.4,15.1-53.2c2.4-4.6,5.2-9.4,8.1-14.4
									c17-29.4,36.3-62.7-0.5-92.5c-18.8-15.2-46.6-17.5-64.6-5.3c-18.1,12.3-26.8,33.1-29.2,39.7l18.4,6.5l-10.5,27.2
									c-0.1,0.3,0,0.6,0.3,0.7c0.1,0,0.1,0,0.2,0h3.9c1.4,0,2.6,1.2,2.6,2.6c0,0.1,0,0.1,0,0.2c-0.7,11.4-0.7,16-0.8,23.6
									c0,3.7,0,8.3-0.1,14.7c0,1.2,0.9,2.2,2.1,2.2c0,0,0,0,0,0h48.3c2.9-8,6.5-15.7,10.8-23.1l-6.1-16.2c-1.4-3.8-0.2-8,3-10.5
									c3.6-2.7,10.4-7.7,8.4-21.1C-31.9,66-43.1,58.4-54.9,59.8c-11.1,1.3-19.3,8-19.8,16.3c-0.4,6.7,0.6,9.3,1.3,11
									c0.3,0.6,0.5,1.3,0.6,2c0,1-0.3,2-0.8,2.9c-0.1,0.3-1.5,2.5-1.9,3.3c-0.1,0.1,0,0.3,0.1,0.4c0,0,0,0,0.1,0l1.1,0.4
									c1.1,0.4,1.4,1,1.8,2c0,0,3.1,7.9,4.9,10.3c0.4,0.5,2.7,0.9,7.3,0.1c1.5-0.3,3.1,0.5,3.8,1.8c0.3,0.6,0.5,1.3,0.4,2.1l0,0.1
									c-1.1,12.1-11.3,21.4-23.5,21.3v-3.1c10.6,0,19.4-8,20.4-18.5l0-0.1c0-0.3-0.1-0.5-0.5-0.5c-8.2,1.4-9.8-0.6-10.3-1.3
									C-72,107.6-75,99.9-75,99.9c-0.1-0.2-0.4-1.1-0.8-1.3c-0.8-0.3-1.9-0.4-2.5-1.8c-0.6-1.6,0.5-2.9,1.3-4.2
									c0.6-1,1.3-2.1,1.1-3c-0.1-0.5-0.3-0.9-0.5-1.3c-0.8-2-2-4.9-1.5-12.4c0.6-9.8,9.9-17.7,22.6-19.2
									c13.4-1.6,26.2,7.2,28,19.2c2.3,15.3-5.7,21.2-9.6,24.1c-2.1,1.6-2.9,4.4-2,6.8l5.3,14c0.7-1.1,1.4-2.1,2.2-3
									c14-18.4,18.9-37.7,13.3-53C-21.8,54-30.6,46.6-42.7,43.9c-26.5-6-38.3,12.2-40.2,15.7l-3.4-1.2c1-1.8,14.1-24.8,44.4-18
									c13.3,3,23.1,11.2,27.4,23.1c6,16.4,0.9,36.9-13.9,56.4c-1.1,1.5-2.3,3.2-3.4,5l0,0l0,0c-8.4,13.7-17.2,36.9-17.2,50.1h-3.6
									c0-6.5,2-15.3,5.1-24.3h-47c-1.9,0-3.7-1-4.8-2.6c-0.7-1-1-2.3-1-3.5c0.1-6.3,0.1-10.8,0.1-14.4c0-7.3,0-11.9,0.7-22.2
									c0-0.3-0.2-0.6-0.5-0.6c0,0,0,0,0,0h-4c-0.5,0-0.9-0.1-1.4-0.3c-1.4-0.7-2-2.3-1.4-3.8l9.6-24.4l-19.1-6.7l0.6-2
									c0.3-1,6.3-20.8,22.1-36.3l-12-8.5c-5.2,6-20.4,24.7-28,47.8c-6.4,19.3-15.7,37.9-22.3,50c-0.8,1.4-0.6,3.2,0.4,4.5
									c0.8,0.9,1.9,1.4,3,1.5l13.5,0.5c2.8,0.1,5,2.5,4.9,5.3l-0.4,40.3c0,2.5,1.1,4.9,3.1,6.4c1.4,1,3.2,1.6,4.9,1.6h30.8
									c4,0,7.2,3.2,7.2,7.2v24.1c0,0.8,0.6,1.4,1.4,1.4h64.6c0.4,0,0.8-0.1,1-0.4c0.3-0.3,0.4-0.6,0.4-1
									c-0.2-11.5,0.7-40.6,14-63.5c2.2-3.8,4.5-7.6,6.6-11.2C19,106.8,36,78.4,17.9,41.4C9.4,24.1-9.9,9-31.5,3
									C-38.3,1-45.4,0-52.5,0C-64.1,0-75.5,2.9-85.7,8.4"/>
							</defs>
							<clipPath id="SVGID_00000083069256069798754490000007645086725211661737_">
								<use xlink:href="#SVGID_00000092441297445694354600000015037428956445733543_"  style="overflow:visible;"/>
							</clipPath>
							<g id="Grupo_738" style="clip-path:url(#SVGID_00000083069256069798754490000007645086725211661737_);">
								<g id="Grupo_737" transform="translate(-0.286 -0.001)">
									<g id="Grupo_736">
										<g>
											<defs>
												<rect id="SVGID_00000178199946513903027310000017740742876242159805_" x="-156.6" y="0" width="192.9" height="215.9"/>
											</defs>
											<clipPath id="SVGID_00000122679532161195213710000000073982250621063333_">
												<use xlink:href="#SVGID_00000178199946513903027310000017740742876242159805_"  style="overflow:visible;"/>
											</clipPath>
											<g id="Grupo_735" style="clip-path:url(#SVGID_00000122679532161195213710000000073982250621063333_);">
												
													<image style="overflow:visible;enable-background:new    ;" width="456" height="510" id="Rect치ngulo_198" xlink:href="634A077697B93332.png"  transform="matrix(0.4239 0 0 0.4239 -156.9097 -7.582467e-02)">
												</image>
											</g>
										</g>
									</g>
								</g>
							</g>
						</g>
					</g>
				</g>
			</g>
		</g>
	</g>
	<g id="Grupo_750" transform="translate(191.217 28.182)" class="st5">
		<g id="Grupo_749">
			<g>
				<defs>
					<rect id="SVGID_00000058586162136621295830000012759491849949237940_" x="-156.6" y="0" width="133.1" height="175.2"/>
				</defs>
				<clipPath id="SVGID_00000113332438831254744210000008788395368631646336_">
					<use xlink:href="#SVGID_00000058586162136621295830000012759491849949237940_"  style="overflow:visible;"/>
				</clipPath>
				<g id="Grupo_748" style="clip-path:url(#SVGID_00000113332438831254744210000008788395368631646336_);">
					<g id="Grupo_747" class="st7">
						<g id="Grupo_746">
							<g>
								<defs>
									<rect id="SVGID_00000150795151894215689790000010254283021388726454_" x="-156.6" y="0" width="133.1" height="175.2"/>
								</defs>
								<clipPath id="SVGID_00000099638641847924109270000008208956384399608222_">
									<use xlink:href="#SVGID_00000150795151894215689790000010254283021388726454_"  style="overflow:visible;"/>
								</clipPath>
								<g id="Grupo_745" style="clip-path:url(#SVGID_00000099638641847924109270000008208956384399608222_);">
									<g id="Grupo_744" transform="translate(0 0)">
										<g>
											<defs>
												<path id="SVGID_00000171693206544308502380000014799346536753665934_" d="M-156.4,91.6c0.2,0.4,0.7,0.6,1.1,0.6h7.5
													c3,0,5.4,2.4,5.4,5.4l0.3,41.5c0,1.5,1.2,2.7,2.8,2.7h35.5c3.4,0,6.2,2.8,6.3,6.2l0.4,25.3c0,1.1,0.9,1.9,2,1.9h26.2
													c1.1,0,1.9-0.8,2-1.9c0.1-9.2,2.2-28.4,15.1-53.2c2.4-4.6,5.2-9.4,8.1-14.4c17-29.4,36.3-62.7-0.5-92.5
													C-63.3-2.1-91.1-4.4-109.1,7.9C-127.3,20.2-136,41-138.4,47.5l18.4,6.5l-10.5,27.2c-0.1,0.3,0,0.6,0.3,0.7
													c0.1,0,0.1,0,0.2,0h3.9c1.4,0,2.6,1.2,2.6,2.6c0,0.1,0,0.1,0,0.2c-0.7,11.4-0.7,16-0.8,23.6c0,3.7,0,8.3-0.1,14.7
													c0,1.2,0.9,2.2,2.1,2.2c0,0,0,0,0,0h48.3c2.9-8,6.5-15.7,10.8-23.1l-6.1-16.2c-1.4-3.8-0.2-8,3-10.5
													c3.6-2.7,10.4-7.7,8.3-21.1c-1.6-10.3-12.8-17.9-24.6-16.5c-11.1,1.3-19.3,8-19.8,16.3c-0.4,6.7,0.6,9.3,1.3,11
													c0.3,0.6,0.5,1.3,0.6,2c0,1-0.3,2-0.8,2.9c-0.1,0.3-1.5,2.5-1.9,3.3c-0.1,0.1,0,0.3,0.1,0.4c0,0,0,0,0.1,0l1.1,0.4
													c1.1,0.4,1.4,1,1.8,2c0,0,3.1,7.9,4.9,10.3c0.4,0.5,2.7,0.9,7.3,0.1c1.5-0.3,3.1,0.5,3.8,1.8c0.3,0.6,0.5,1.3,0.4,2.1
													l0,0.1c-1.1,12.1-11.3,21.4-23.5,21.3v-3.1c10.6,0,19.4-8,20.4-18.5l0-0.1c0-0.3-0.1-0.5-0.5-0.5
													c-8.2,1.4-9.8-0.6-10.3-1.3c-2.1-2.7-5.1-10.4-5.1-10.4c-0.1-0.2-0.4-1.1-0.8-1.3c-0.8-0.3-1.9-0.4-2.5-1.8
													c-0.6-1.6,0.5-2.9,1.3-4.2c0.6-1,1.3-2.1,1.1-3c-0.1-0.5-0.3-0.9-0.5-1.3c-0.8-2-2-4.9-1.5-12.4
													c0.6-9.8,9.9-17.7,22.6-19.2c13.4-1.6,26.2,7.2,28,19.2c2.3,15.3-5.7,21.2-9.6,24.1c-2.1,1.6-2.9,4.4-2,6.8l5.3,14
													c0.7-1.1,1.4-2.1,2.1-3c14-18.4,18.9-37.7,13.3-53C-49.3,32.1-58.1,24.7-70.2,22c-26.5-6-38.3,12.2-40.2,15.7l-3.4-1.2
													c1-1.8,14.1-24.8,44.4-18c13.3,3,23.1,11.2,27.4,23.1c6,16.4,0.9,36.9-13.9,56.4c-1.1,1.5-2.3,3.2-3.4,5l0,0l0,0
													c-8.4,13.7-17.2,36.9-17.2,50.1h-3.6c0-6.5,2-15.3,5.1-24.3h-47c-1.9,0-3.7-1-4.8-2.6c-0.7-1-1-2.3-1-3.5
													c0.1-6.3,0.1-10.8,0.1-14.4c0-7.3,0-11.9,0.7-22.2c0-0.3-0.2-0.6-0.5-0.6c0,0,0,0,0,0h-4c-0.5,0-0.9-0.1-1.4-0.3
													c-1.4-0.7-2-2.3-1.4-3.8l9.6-24.4l-19.1-6.7l-5.4,15.6l3.3,1.2l-10.5,23.2C-156.7,90.8-156.7,91.2-156.4,91.6"/>
											</defs>
											<clipPath id="SVGID_00000014631862000257123620000008832818461024368793_">
												<use xlink:href="#SVGID_00000171693206544308502380000014799346536753665934_"  style="overflow:visible;"/>
											</clipPath>
											<g id="Grupo_743" style="clip-path:url(#SVGID_00000014631862000257123620000008832818461024368793_);">
												
													<image style="overflow:visible;enable-background:new    ;" width="170" height="205" id="Rect치ngulo_201" xlink:href="634A077697B93336.png"  transform="matrix(0.883 0 0 0.883 -157.1087 -5.2508)">
												</image>
											</g>
										</g>
									</g>
								</g>
							</g>
						</g>
					</g>
				</g>
			</g>
		</g>
	</g>
	<g id="Grupo_758" transform="translate(217.368 48.937)">
		<g id="Grupo_757">
			<g>
				<defs>
					<rect id="SVGID_00000165926700000146593850000011735727378429570188_" x="-156.6" y="0" width="87.3" height="104.5"/>
				</defs>
				<clipPath id="SVGID_00000020363971569031121490000008950893050221869210_">
					<use xlink:href="#SVGID_00000165926700000146593850000011735727378429570188_"  style="overflow:visible;"/>
				</clipPath>
				<g id="Grupo_756" style="clip-path:url(#SVGID_00000020363971569031121490000008950893050221869210_);">
					<g id="Grupo_755" class="st7">
						<g id="Grupo_754">
							<g>
								<defs>
									<rect id="SVGID_00000119082228671956201420000000089064894489886603_" x="-156.6" y="0" width="87.3" height="104.5"/>
								</defs>
								<clipPath id="SVGID_00000157279579548290918810000011078080441344143527_">
									<use xlink:href="#SVGID_00000119082228671956201420000000089064894489886603_"  style="overflow:visible;"/>
								</clipPath>
								<g id="Grupo_753" style="clip-path:url(#SVGID_00000157279579548290918810000011078080441344143527_);">
									<g id="Grupo_752" transform="translate(0 0)">
										<g>
											<defs>
												<path id="SVGID_00000039093736766566389220000002496852915488450689_" d="M-146.1,33.3l-10.5,27.2
													c-0.1,0.3,0,0.6,0.3,0.7c0.1,0,0.1,0,0.2,0h3.9c1.4,0,2.6,1.2,2.6,2.6c0,0.1,0,0.1,0,0.2c-0.7,11.4-0.7,16-0.8,23.6
													c0,3.7,0,8.3-0.1,14.7c0,1.2,0.9,2.2,2.1,2.2c0,0,0,0,0,0h48.3c2.9-8,6.5-15.7,10.8-23.1l-6.2-16.2
													c-1.4-3.8-0.2-8,3-10.5c3.6-2.7,10.4-7.7,8.4-21.1c-1.6-10.3-12.8-17.9-24.6-16.5c-11.1,1.3-19.3,8-19.8,16.3
													c-0.4,6.7,0.6,9.3,1.3,11c0.3,0.6,0.5,1.3,0.6,2c0,1-0.3,2-0.8,2.9c-0.1,0.3-1.5,2.5-1.9,3.3c-0.1,0.1,0,0.3,0.1,0.4
													c0,0,0,0,0.1,0l1.1,0.4c1.1,0.4,1.4,1,1.8,2c0,0,3.1,7.9,4.9,10.3c0.4,0.5,2.7,0.9,7.3,0.1c1.5-0.3,3.1,0.5,3.8,1.8
													c0.3,0.6,0.5,1.3,0.4,2.1l0,0.1c-1.1,12.1-11.3,21.4-23.5,21.3v-3.1c10.6,0,19.4-8,20.4-18.5l0-0.1
													c0-0.3-0.1-0.5-0.5-0.5c-8.2,1.4-9.8-0.6-10.3-1.3c-2.1-2.7-5.1-10.4-5.1-10.4c-0.1-0.2-0.4-1.1-0.8-1.3
													c-0.8-0.3-1.9-0.4-2.5-1.8c-0.6-1.6,0.5-2.9,1.3-4.2c0.6-1,1.3-2.1,1.1-3c-0.1-0.5-0.3-0.9-0.5-1.3
													c-0.8-2-2-4.9-1.5-12.4c0.6-9.8,9.9-17.7,22.6-19.2c13.4-1.6,26.2,7.2,28,19.2c2.3,15.3-5.7,21.2-9.6,24.1
													c-2.1,1.6-2.9,4.4-2,6.8l5.3,14c0.7-1.1,1.4-2.1,2.2-3c14-18.4,18.9-37.7,13.3-53C-75.5,11.3-84.3,3.9-96.4,1.2
													c-26.5-6-38.3,12.2-40.2,15.7L-146.1,33.3L-146.1,33.3z"/>
											</defs>
											<clipPath id="SVGID_00000122687372814736954090000001125925203098819471_">
												<use xlink:href="#SVGID_00000039093736766566389220000002496852915488450689_"  style="overflow:visible;"/>
											</clipPath>
											<g id="Grupo_751" style="clip-path:url(#SVGID_00000122687372814736954090000001125925203098819471_);">
												
													<image style="overflow:visible;enable-background:new    ;" width="213" height="216" id="Rect치ngulo_204" xlink:href="634A077697B93331.png"  transform="matrix(0.8831 0 0 0.8831 -205.3346 -45.434)">
												</image>
											</g>
										</g>
									</g>
								</g>
							</g>
						</g>
					</g>
				</g>
			</g>
		</g>
	</g>
	<g id="Grupo_766" transform="translate(237.266 61.461)" class="st13">
		<g id="Grupo_765">
			<g>
				<defs>
					<rect id="SVGID_00000176017951413811046770000000932733436775234227_" x="-156.6" y="0" width="57.6" height="96.4"/>
				</defs>
				<clipPath id="SVGID_00000120538067145056138500000001389154776003436430_">
					<use xlink:href="#SVGID_00000176017951413811046770000000932733436775234227_"  style="overflow:visible;"/>
				</clipPath>
				<g id="Grupo_764" style="clip-path:url(#SVGID_00000120538067145056138500000001389154776003436430_);">
					<g id="Grupo_763" class="st7">
						<g id="Grupo_762">
							<g>
								<defs>
									<rect id="SVGID_00000078751867805229766480000003145837733969029008_" x="-156.6" y="0" width="57.6" height="96.4"/>
								</defs>
								<clipPath id="SVGID_00000029020275313053371120000010701387460113246647_">
									<use xlink:href="#SVGID_00000078751867805229766480000003145837733969029008_"  style="overflow:visible;"/>
								</clipPath>
								<g id="Grupo_761" style="clip-path:url(#SVGID_00000029020275313053371120000010701387460113246647_);">
									<g id="Grupo_760" transform="translate(4.415 4.415)">
										<g>
											<defs>
												<path id="SVGID_00000042006210767477534200000009133704857303356598_" d="M-132.8,0.2c-11.1,1.3-19.3,8-19.8,16.3
													c-0.4,6.7,0.6,9.3,1.3,11c0.3,0.6,0.5,1.3,0.6,2c0,1-0.3,2-0.8,2.9c-0.1,0.3-1.5,2.5-1.9,3.3c-0.1,0.1,0,0.3,0.1,0.4
													c0,0,0,0,0.1,0l1.1,0.4c1.1,0.4,1.4,1,1.8,2c0,0,3.1,7.9,4.9,10.3c0.4,0.5,2.7,0.9,7.3,0.1c1.5-0.3,3.1,0.5,3.8,1.8
													c0.3,0.6,0.5,1.3,0.4,2.1l0,0.1c-1.1,11.8-10.9,21-22.8,21.3v13.4h32.3c2.9-8,6.5-15.7,10.8-23.1l-6.1-16.2
													c-1.4-3.8-0.2-8,3-10.5c3.6-2.7,10.4-7.7,8.3-21.1C-109.7,7.2-119.3,0-130.1,0C-131,0-131.9,0.1-132.8,0.2"/>
											</defs>
											<clipPath id="SVGID_00000073000189151489682830000007282273270794161073_">
												<use xlink:href="#SVGID_00000042006210767477534200000009133704857303356598_"  style="overflow:visible;"/>
											</clipPath>
											<g id="Grupo_759" style="clip-path:url(#SVGID_00000073000189151489682830000007282273270794161073_);">
												
													<image style="overflow:visible;enable-background:new    ;" width="58" height="100" id="Rect치ngulo_207" xlink:href="634A077697B93333.png"  transform="matrix(0.8831 0 0 0.8831 -157.2376 -0.56)">
												</image>
											</g>
										</g>
									</g>
								</g>
							</g>
						</g>
					</g>
				</g>
			</g>
		</g>
	</g>
</g>
</svg>
