<svg id="Grupo_15" data-name="Grupo 15" xmlns="http://www.w3.org/2000/svg" xmlns:xlink="http://www.w3.org/1999/xlink" width="29.862" height="35.028" viewBox="0 0 29.862 35.028">
  <defs>
    <clipPath id="clip-path">
      <rect id="Rectángulo_6" data-name="Rectángulo 6" width="29.862" height="35.028"/>
    </clipPath>
  </defs>
  <g id="Grupo_7" data-name="Grupo 7">
    <g id="Grupo_6" data-name="Grupo 6" clip-path="url(#clip-path)">
      <path id="Trazado_1" data-name="Trazado 1" d="M28.588,6.879A13.29,13.29,0,0,0,20.407.48a11.969,11.969,0,0,0-9.44,1.156l.87.614a10.944,10.944,0,0,1,8.31-.842A12.289,12.289,0,0,1,27.722,7.3c2.771,5.672.175,10.033-2.83,15.082-.333.56-.678,1.139-1.017,1.724-2.037,3.507-2.179,7.976-2.146,9.734a.215.215,0,0,1-.063.158.2.2,0,0,1-.156.063H11.6a.217.217,0,0,1-.213-.216v-3.7a1.1,1.1,0,0,0-1.1-1.1H5.573a1.246,1.246,0,0,1-.754-.238,1.2,1.2,0,0,1-.482-.974l.058-6.175a.792.792,0,0,0-.753-.812l-2.076-.082a.62.62,0,0,1-.465-.223.606.606,0,0,1-.064-.682,48.473,48.473,0,0,0,3.424-7.674,22.966,22.966,0,0,1,4.3-7.327l1.839,1.3a14.368,14.368,0,0,0-3.392,5.561l-.094.314,2.932,1.033L8.58,16.814A.464.464,0,0,0,8.8,17.4a.442.442,0,0,0,.208.046h.608a.082.082,0,0,1,.081.088c-.1,1.587-.1,2.285-.1,3.405,0,.557,0,1.248-.018,2.21a.926.926,0,0,0,.149.539.884.884,0,0,0,.735.392h7.213A12.63,12.63,0,0,0,16.9,27.8h.551c0-2.037,1.346-5.585,2.641-7.688l.006,0,0,0c.177-.288.353-.548.525-.774,2.267-2.978,3.042-6.128,2.126-8.643a5.569,5.569,0,0,0-4.2-3.543A6,6,0,0,0,11.733,9.9l.526.186a5.381,5.381,0,0,1,6.164-2.4,5.035,5.035,0,0,1,3.8,3.194c.85,2.335.1,5.3-2.046,8.121-.109.142-.219.3-.33.467l-.813-2.142a.9.9,0,0,1,.3-1.045,3.417,3.417,0,0,0,1.47-3.692,3.844,3.844,0,0,0-4.3-2.943c-1.94.225-3.362,1.437-3.46,2.947a3.776,3.776,0,0,0,.23,1.9,1.116,1.116,0,0,1,.07.206.745.745,0,0,1-.173.46c-.119.189-.286.4-.2.64s.255.23.381.283c.056.023.105.168.118.2a9.541,9.541,0,0,0,.78,1.59c.081.1.323.4,1.587.193.06-.01.088.028.082.072l0,.016A3.126,3.126,0,0,1,12.8,20.987v.482A3.606,3.606,0,0,0,16.4,18.2l0-.016a.522.522,0,0,0-.061-.314.556.556,0,0,0-.587-.279c-.709.128-1.063.06-1.12-.013A10.383,10.383,0,0,1,13.883,16c-.064-.162-.116-.257-.278-.314l-.172-.054a.042.042,0,0,1-.024-.061c.074-.123.276-.458.3-.5a1,1,0,0,0,.118-.452,1.025,1.025,0,0,0-.1-.3,3.355,3.355,0,0,1-.2-1.687c.083-1.274,1.33-2.3,3.035-2.5a3.353,3.353,0,0,1,3.768,2.537,2.952,2.952,0,0,1-1.28,3.232,1.387,1.387,0,0,0-.467,1.6l.943,2.483a22.214,22.214,0,0,0-1.657,3.542H10.464a.334.334,0,0,1-.334-.34c.015-.981.017-1.684.018-2.248,0-1.167,0-1.871.117-3.619a.4.4,0,0,0-.4-.427h-.6a.086.086,0,0,1-.081-.118L10.8,12.606l-2.823-1a13.057,13.057,0,0,1,4.48-6.085C15.222,3.651,19.48,4,22.36,6.332c5.636,4.571,2.682,9.68.076,14.188-.446.772-.868,1.5-1.239,2.214a18.38,18.38,0,0,0-2.312,8.158.3.3,0,0,1-.3.293H14.57a.3.3,0,0,1-.3-.3l-.055-3.874a.965.965,0,0,0-.961-.947H7.816a.424.424,0,0,1-.423-.42L7.353,19.29a.835.835,0,0,0-.833-.828H5.372a.2.2,0,0,1-.183-.284l1.6-3.562-.652-.23L4.561,17.895a.89.89,0,0,0,.2,1.014.916.916,0,0,0,.639.242H6.52a.145.145,0,0,1,.144.143L6.7,25.652a1.114,1.114,0,0,0,1.111,1.1h5.439a.274.274,0,0,1,.272.268l.055,3.874a.992.992,0,0,0,.988.974h4.016a.989.989,0,0,0,.988-.975,17.881,17.881,0,0,1,2.234-7.847c.364-.7.782-1.422,1.224-2.187,2.609-4.511,5.855-10.126-.238-15.067-3.106-2.519-7.718-2.881-10.727-.841-.255.173-.5.357-.73.547L8.627,3.592l-.287.3a23.635,23.635,0,0,0-4.8,8A47.386,47.386,0,0,1,.21,19.367a1.616,1.616,0,0,0-.1,1.385,1.571,1.571,0,0,0,1.4.983l1.917.076-.056,6.021a2.157,2.157,0,0,0,.812,1.711,2.223,2.223,0,0,0,1.4.474h4.709a.135.135,0,0,1,.135.135v3.7a1.187,1.187,0,0,0,1.163,1.18h9.923a1.177,1.177,0,0,0,.955-.487,1.21,1.21,0,0,0,.223-.742c-.03-1.7.111-5.926,2.016-9.206.337-.581.68-1.157,1.012-1.715,3.017-5.07,5.868-9.858,2.868-16" transform="translate(0 0.001)"/>
    </g>
  </g>
</svg>
