<svg id="Grupo_15" data-name="Grupo 15" xmlns="http://www.w3.org/2000/svg" xmlns:xlink="http://www.w3.org/1999/xlink" width="378.538" height="52.284" viewBox="0 0 378.538 52.284">
  <defs>
    <clipPath id="clip-path">
      <rect id="Rectángulo_6" data-name="Rectángulo 6" width="44.574" height="52.284" fill="#fff"/>
    </clipPath>
    <clipPath id="clip-path-2">
      <rect id="Rectángulo_125" data-name="Rectángulo 125" width="311.105" height="19.624" fill="#fff"/>
    </clipPath>
  </defs>
  <g id="Grupo_7" data-name="Grupo 7">
    <g id="Grupo_6" data-name="Grupo 6" clip-path="url(#clip-path)">
      <path id="Trazado_1" data-name="Trazado 1" d="M42.672,10.268C40.564,5.954,35.771,2.2,30.461.717A17.866,17.866,0,0,0,16.37,2.443l1.3.916A16.336,16.336,0,0,1,30.073,2.1c4.933,1.382,9.37,4.834,11.306,8.8,4.136,8.466.261,14.975-4.225,22.512-.5.836-1.011,1.7-1.519,2.573-3.04,5.235-3.252,11.905-3.2,14.53a.321.321,0,0,1-.094.235.3.3,0,0,1-.232.094H17.322A.324.324,0,0,1,17,50.522V45.006a1.64,1.64,0,0,0-1.64-1.64H8.318a1.859,1.859,0,0,1-1.126-.355,1.787,1.787,0,0,1-.72-1.454l.086-9.217a1.182,1.182,0,0,0-1.124-1.212l-3.1-.123a.925.925,0,0,1-.694-.332.9.9,0,0,1-.1-1.019A72.354,72.354,0,0,0,6.657,18.2a34.281,34.281,0,0,1,6.42-10.937L15.822,9.2a21.446,21.446,0,0,0-5.063,8.3l-.14.469L15,19.512,12.807,25.1a.692.692,0,0,0,.331.867.659.659,0,0,0,.311.069h.907a.123.123,0,0,1,.121.131c-.147,2.369-.149,3.41-.153,5.083,0,.831,0,1.863-.026,3.3a1.383,1.383,0,0,0,.223.8,1.32,1.32,0,0,0,1.1.585H26.385A18.852,18.852,0,0,0,25.222,41.5h.822c0-3.04,2.009-8.337,3.942-11.476l.009,0,0-.007c.264-.429.528-.819.784-1.156,3.383-4.445,4.54-9.147,3.173-12.9a8.313,8.313,0,0,0-6.269-5.288,8.961,8.961,0,0,0-10.167,4.11l.785.277c.445-.786,3.124-4.955,9.2-3.585a7.516,7.516,0,0,1,5.677,4.767c1.269,3.486.156,7.9-3.055,12.122-.162.213-.326.448-.492.7l-1.214-3.2a1.348,1.348,0,0,1,.452-1.56c.886-.654,2.729-2.014,2.195-5.511-.418-2.737-3.357-4.749-6.418-4.394-2.9.337-5.019,2.145-5.165,4.4a5.636,5.636,0,0,0,.344,2.834,1.666,1.666,0,0,1,.1.308,1.112,1.112,0,0,1-.259.687c-.178.283-.427.6-.3.955.124.337.381.343.569.423.083.035.157.25.176.3a14.242,14.242,0,0,0,1.164,2.373c.12.155.482.6,2.368.287.089-.015.132.042.123.108l0,.023a4.666,4.666,0,0,1-4.662,4.233v.719a5.383,5.383,0,0,0,5.379-4.882l0-.023a.779.779,0,0,0-.091-.469.829.829,0,0,0-.876-.417c-1.059.191-1.587.089-1.672-.02a15.5,15.5,0,0,1-1.128-2.348c-.1-.242-.173-.384-.415-.468l-.256-.081a.062.062,0,0,1-.036-.091c.111-.184.412-.684.446-.752a1.489,1.489,0,0,0,.175-.675,1.53,1.53,0,0,0-.146-.455,5.007,5.007,0,0,1-.293-2.518c.123-1.9,1.986-3.435,4.53-3.731,2.689-.312,5.263,1.422,5.624,3.787.468,3.068-1.079,4.21-1.911,4.824a2.071,2.071,0,0,0-.7,2.394l1.407,3.707a33.158,33.158,0,0,0-2.474,5.288H15.619a.5.5,0,0,1-.5-.508c.023-1.465.025-2.513.027-3.356,0-1.741.006-2.792.175-5.4a.6.6,0,0,0-.594-.637h-.894a.129.129,0,0,1-.12-.175l2.4-6.22L11.9,17.332c.544-1.5,2.535-6.269,6.688-9.083,4.132-2.8,10.489-2.282,14.787,1.2,8.413,6.823,4,14.449.113,21.177-.666,1.152-1.3,2.241-1.849,3.3a27.435,27.435,0,0,0-3.451,12.177.446.446,0,0,1-.447.437H21.748a.45.45,0,0,1-.447-.441l-.082-5.783a1.44,1.44,0,0,0-1.434-1.414H11.666a.633.633,0,0,1-.631-.627l-.059-9.49a1.246,1.246,0,0,0-1.243-1.235H8.019a.3.3,0,0,1-.274-.424l2.4-5.317-.973-.343-2.36,5.237a1.329,1.329,0,0,0,.3,1.513,1.367,1.367,0,0,0,.953.362H9.733a.216.216,0,0,1,.215.214l.059,9.49a1.663,1.663,0,0,0,1.659,1.648h8.119a.408.408,0,0,1,.407.4l.082,5.783a1.481,1.481,0,0,0,1.475,1.454h5.994a1.477,1.477,0,0,0,1.475-1.455,26.691,26.691,0,0,1,3.335-11.713c.543-1.043,1.167-2.122,1.828-3.264,3.894-6.734,8.74-15.114-.356-22.49C29.387,4.894,22.5,4.354,18.012,7.4c-.381.259-.743.533-1.09.816L12.877,5.362l-.428.448A35.279,35.279,0,0,0,5.29,17.748,70.731,70.731,0,0,1,.314,28.909a2.412,2.412,0,0,0-.147,2.067,2.346,2.346,0,0,0,2.089,1.467l2.861.113-.084,8.988A3.22,3.22,0,0,0,6.245,44.1a3.318,3.318,0,0,0,2.09.707h7.029a.2.2,0,0,1,.2.2v5.516A1.772,1.772,0,0,0,17.3,52.283H32.112a1.756,1.756,0,0,0,1.426-.728,1.806,1.806,0,0,0,.333-1.108c-.044-2.53.166-8.845,3.009-13.741.5-.867,1.016-1.727,1.511-2.56,4.5-7.567,8.759-14.715,4.281-23.88" transform="translate(0 0.001)" fill="#fff"/>
    </g>
  </g>
  <g id="Grupo_582" data-name="Grupo 582" transform="translate(67.432 16.33)">
    <path id="Trazado_646" data-name="Trazado 646" d="M14.558.873,10.332,13.06h-.051L6.082.873H0V19.548H4.019V5.226h.052L8.684,19.548H11.75L16.542,5.226h.052V19.548h4.02V.873Z" transform="translate(0 -0.399)" fill="#fff"/>
    <g id="Grupo_581" data-name="Grupo 581" transform="translate(0 0)">
      <g id="Grupo_580" data-name="Grupo 580" clip-path="url(#clip-path-2)">
        <path id="Trazado_647" data-name="Trazado 647" d="M52.553,29.034a2.515,2.515,0,0,1,.18-.95,2.355,2.355,0,0,1,.5-.778,2.3,2.3,0,0,1,.76-.514,2.428,2.428,0,0,1,1.855,0,2.313,2.313,0,0,1,.76.514,2.372,2.372,0,0,1,.5.778,2.59,2.59,0,0,1,0,1.9,2.361,2.361,0,0,1-.5.778,2.3,2.3,0,0,1-.76.515,2.428,2.428,0,0,1-1.855,0,2.287,2.287,0,0,1-.76-.515,2.344,2.344,0,0,1-.5-.778,2.513,2.513,0,0,1-.18-.95" transform="translate(-24.004 -12.153)" fill="#fff"/>
        <path id="Trazado_648" data-name="Trazado 648" d="M86.323.874h4.02V7.837H98.15V.874h4.02V19.549H98.15V11.478H90.342v8.071h-4.02Z" transform="translate(-39.428 -0.399)" fill="#fff"/>
        <path id="Trazado_649" data-name="Trazado 649" d="M141.579.874h12.394v3.8H145.6V8.154h7.91v3.8H145.6v3.8h8.838v3.8H141.579Z" transform="translate(-64.666 -0.399)" fill="#fff"/>
        <path id="Trazado_650" data-name="Trazado 650" d="M190.148.874h7.06a12.181,12.181,0,0,1,2.641.277,6.2,6.2,0,0,1,2.19.923,4.573,4.573,0,0,1,1.494,1.741,6.016,6.016,0,0,1,.554,2.73,5.573,5.573,0,0,1-1,3.363,4.5,4.5,0,0,1-2.938,1.754l4.638,7.887h-4.818l-3.813-7.465h-1.984v7.465h-4.02Zm4.02,7.728h2.371q.541,0,1.147-.04a3.514,3.514,0,0,0,1.1-.237,1.9,1.9,0,0,0,.811-.619,1.921,1.921,0,0,0,.322-1.188,2.013,2.013,0,0,0-.283-1.134,1.911,1.911,0,0,0-.722-.646,3.158,3.158,0,0,0-1-.3,7.942,7.942,0,0,0-1.108-.079h-2.628Z" transform="translate(-86.85 -0.399)" fill="#fff"/>
        <path id="Trazado_651" data-name="Trazado 651" d="M247.725,5.038A2.868,2.868,0,0,0,246.4,4.1a4.675,4.675,0,0,0-1.584-.3,4.078,4.078,0,0,0-.9.105,3.411,3.411,0,0,0-.876.33,1.927,1.927,0,0,0-.67.593,1.527,1.527,0,0,0-.258.9,1.5,1.5,0,0,0,.618,1.293,5.809,5.809,0,0,0,1.559.765q.94.316,2.023.633a8.241,8.241,0,0,1,2.023.9,4.85,4.85,0,0,1,1.559,1.556,4.833,4.833,0,0,1,.619,2.611,6.127,6.127,0,0,1-.567,2.717,5.488,5.488,0,0,1-1.533,1.926,6.466,6.466,0,0,1-2.241,1.134,10.051,10.051,0,0,1-5.991-.185,8.224,8.224,0,0,1-2.835-1.793l2.86-3.218a4.2,4.2,0,0,0,1.559,1.305,4.367,4.367,0,0,0,1.945.462,4.3,4.3,0,0,0,.992-.119,3.185,3.185,0,0,0,.9-.356,1.965,1.965,0,0,0,.644-.606,1.542,1.542,0,0,0,.245-.871,1.594,1.594,0,0,0-.632-1.332,5.787,5.787,0,0,0-1.585-.831q-.953-.343-2.061-.686a9.133,9.133,0,0,1-2.062-.924,5.013,5.013,0,0,1-1.584-1.53,4.45,4.45,0,0,1-.632-2.506,5.565,5.565,0,0,1,2.126-4.537A6.675,6.675,0,0,1,242.288.382a8.95,8.95,0,0,1,2.6-.382,10.014,10.014,0,0,1,2.988.449,6.853,6.853,0,0,1,2.6,1.5Z" transform="translate(-108.405 0)" fill="#fff"/>
        <path id="Trazado_652" data-name="Trazado 652" d="M290.888.874h4.02V8.629L301.994.874h5.257l-8.117,8.678,8.812,10h-5.617l-7.421-8.863v8.863h-4.02Z" transform="translate(-132.863 -0.399)" fill="#fff"/>
        <path id="Trazado_653" data-name="Trazado 653" d="M342.018,9.812a10.768,10.768,0,0,1,.734-4.062,8.916,8.916,0,0,1,2.049-3.1A8.989,8.989,0,0,1,347.918.686a11.669,11.669,0,0,1,7.885,0,8.994,8.994,0,0,1,3.118,1.965,8.915,8.915,0,0,1,2.049,3.1,10.768,10.768,0,0,1,.734,4.062,10.768,10.768,0,0,1-.734,4.062,8.785,8.785,0,0,1-5.166,5.064,11.669,11.669,0,0,1-7.885,0,8.786,8.786,0,0,1-5.166-5.064,10.768,10.768,0,0,1-.734-4.062m4.174,0a6.983,6.983,0,0,0,.4,2.414,5.551,5.551,0,0,0,1.147,1.9,5.23,5.23,0,0,0,1.791,1.253,6.282,6.282,0,0,0,4.663,0,5.235,5.235,0,0,0,1.791-1.253,5.55,5.55,0,0,0,1.146-1.9,7,7,0,0,0,.4-2.414,7.029,7.029,0,0,0-.4-2.4A5.529,5.529,0,0,0,355.983,5.5a5.241,5.241,0,0,0-1.791-1.252,6.282,6.282,0,0,0-4.663,0A5.236,5.236,0,0,0,347.738,5.5a5.529,5.529,0,0,0-1.147,1.913,7.015,7.015,0,0,0-.4,2.4" transform="translate(-156.216 0)" fill="#fff"/>
        <path id="Trazado_654" data-name="Trazado 654" d="M398.745.874h4.38l2.912,11.975h.052L409.9.874h3.736l3.788,12.292h.052L420.543.874h4.071l-5.334,18.675H415.7L411.68,6.624h-.052l-4.02,12.924h-3.453Z" transform="translate(-182.126 -0.399)" fill="#fff"/>
        <rect id="Rectángulo_124" data-name="Rectángulo 124" width="4.02" height="18.675" transform="translate(254.547 0.475)" fill="#fff"/>
        <path id="Trazado_655" data-name="Trazado 655" d="M503.791,4.514h-5.2V.873h14.429v3.64h-5.2V19.548h-4.02Z" transform="translate(-227.729 -0.399)" fill="#fff"/>
        <path id="Trazado_656" data-name="Trazado 656" d="M546.112,15.75l9.25-11.236h-8.915V.874h13.785v3.64l-9.07,11.236h9.379v3.8H546.112Z" transform="translate(-249.436 -0.399)" fill="#fff"/>
      </g>
    </g>
  </g>
</svg>
