<?xml version="1.0" encoding="utf-8"?>
<!-- Generator: Adobe Illustrator 26.0.3, SVG Export Plug-In . SVG Version: 6.00 Build 0)  -->
<svg version="1.1" id="Capa_1" xmlns="http://www.w3.org/2000/svg" xmlns:xlink="http://www.w3.org/1999/xlink" x="0px" y="0px"
	 viewBox="0 0 247.2 23" style="enable-background:new 0 0 247.2 23;" xml:space="preserve">
<style type="text/css">
	.st0{enable-background:new    ;}
	.st1{fill:#EAE9E8;}
	.st2{fill:#FF4B1A;}
</style>
<g class="st0">
	<path class="st1" d="M8.4,6.1c2,0,3.5,0.5,4.6,1.5c1.1,1,1.6,2.5,1.6,4.6c0,1.1-0.1,2-0.4,2.9c-0.2,0.8-0.6,1.5-1.1,2.1
		c-0.5,0.6-1.1,1-1.9,1.3C10.4,18.8,9.5,19,8.4,19H4V6.1H8.4z M8.6,17.6c0.2,0,0.4,0,0.7,0c0.3,0,0.6-0.1,0.9-0.2
		c0.3-0.1,0.6-0.3,1-0.5c0.3-0.2,0.6-0.5,0.9-0.9s0.5-0.8,0.6-1.4c0.2-0.6,0.2-1.2,0.2-2c0-0.8-0.1-1.5-0.2-2.1
		c-0.2-0.6-0.4-1.1-0.7-1.5c-0.3-0.4-0.8-0.7-1.3-1c-0.5-0.2-1.2-0.3-2-0.3H5.7v10H8.6z"/>
	<path class="st1" d="M23,18.4c-0.7,0.5-1.6,0.8-2.6,0.8c-0.7,0-1.4-0.1-1.9-0.4c-0.5-0.2-1-0.6-1.4-1s-0.7-0.9-0.8-1.5
		c-0.2-0.6-0.3-1.3-0.3-2c0-0.7,0.1-1.4,0.3-1.9c0.2-0.6,0.5-1.1,0.9-1.5c0.4-0.4,0.9-0.8,1.4-1c0.5-0.2,1.1-0.4,1.8-0.4
		c0.8,0,1.5,0.2,2.1,0.5c0.5,0.3,1,0.8,1.3,1.3c0.3,0.5,0.6,1.1,0.7,1.7s0.2,1.2,0.2,1.8h-7c0,0.4,0,0.8,0.1,1.2
		c0.1,0.4,0.3,0.7,0.5,1c0.2,0.3,0.5,0.5,0.9,0.7c0.4,0.2,0.8,0.3,1.3,0.3c0.6,0,1.2-0.2,1.6-0.5c0.4-0.3,0.7-0.8,0.8-1.4h1.5
		C24.2,17.1,23.7,17.9,23,18.4z M22.6,12.4c-0.1-0.3-0.3-0.6-0.6-0.8c-0.2-0.2-0.5-0.4-0.8-0.6s-0.7-0.2-1.1-0.2
		c-0.4,0-0.8,0.1-1.1,0.2s-0.6,0.3-0.8,0.6c-0.2,0.2-0.4,0.5-0.5,0.8c-0.1,0.3-0.2,0.7-0.2,1h5.3C22.9,13.1,22.8,12.8,22.6,12.4z"/>
	<path class="st1" d="M27.3,16.9c0.1,0.2,0.3,0.4,0.6,0.6c0.2,0.1,0.5,0.2,0.8,0.3c0.3,0.1,0.6,0.1,0.9,0.1c0.2,0,0.5,0,0.8-0.1
		c0.3,0,0.5-0.1,0.7-0.2c0.2-0.1,0.4-0.2,0.5-0.4c0.1-0.2,0.2-0.4,0.2-0.7c0-0.4-0.1-0.7-0.4-0.9c-0.3-0.2-0.7-0.4-1.1-0.5
		c-0.5-0.1-0.9-0.2-1.5-0.3s-1-0.2-1.5-0.4c-0.5-0.2-0.8-0.4-1.1-0.8c-0.3-0.3-0.5-0.8-0.5-1.4c0-0.5,0.1-0.9,0.3-1.2
		s0.5-0.6,0.8-0.8c0.3-0.2,0.7-0.4,1.1-0.5c0.4-0.1,0.8-0.2,1.2-0.2c0.5,0,1,0,1.5,0.1s0.8,0.2,1.2,0.5c0.3,0.2,0.6,0.5,0.8,0.9
		c0.2,0.4,0.3,0.8,0.4,1.4h-1.5c0-0.3-0.1-0.5-0.2-0.7c-0.1-0.2-0.3-0.4-0.5-0.5S30.3,11,30,10.9c-0.2-0.1-0.5-0.1-0.7-0.1
		c-0.2,0-0.5,0-0.7,0.1S28.2,11,28,11.1s-0.3,0.2-0.5,0.4c-0.1,0.2-0.2,0.3-0.2,0.6c0,0.3,0.1,0.5,0.3,0.7s0.4,0.3,0.7,0.4
		c0.3,0.1,0.6,0.2,1,0.3c0.4,0.1,0.7,0.2,1.1,0.2c0.4,0.1,0.8,0.2,1.1,0.3c0.4,0.1,0.7,0.3,1,0.5c0.3,0.2,0.5,0.4,0.7,0.7
		c0.2,0.3,0.3,0.7,0.3,1.1c0,0.6-0.1,1-0.4,1.4c-0.2,0.4-0.5,0.7-0.9,0.9c-0.4,0.2-0.8,0.4-1.3,0.5c-0.5,0.1-0.9,0.1-1.4,0.1
		c-0.5,0-1-0.1-1.5-0.2c-0.5-0.1-0.9-0.3-1.2-0.5c-0.4-0.2-0.6-0.6-0.9-1s-0.3-0.9-0.4-1.5H27C27,16.4,27.1,16.7,27.3,16.9z"/>
	<path class="st1" d="M35.2,8V6.1h1.5V8H35.2z M36.7,9.7V19h-1.5V9.7H36.7z"/>
	<path class="st1" d="M46.1,21.6c-0.7,0.8-1.8,1.1-3.3,1.1c-0.4,0-0.9,0-1.3-0.1c-0.5-0.1-0.9-0.3-1.2-0.5c-0.4-0.2-0.7-0.5-0.9-0.8
		C39.1,21,39,20.5,38.9,20h1.5c0,0.3,0.1,0.5,0.3,0.7c0.2,0.2,0.4,0.3,0.6,0.5c0.2,0.1,0.5,0.2,0.8,0.3c0.3,0.1,0.5,0.1,0.8,0.1
		c0.5,0,0.9-0.1,1.3-0.3c0.3-0.2,0.6-0.4,0.9-0.7c0.2-0.3,0.4-0.7,0.5-1.1c0.1-0.4,0.2-0.9,0.2-1.4v-0.6h0c-0.3,0.6-0.7,1-1.2,1.3
		c-0.5,0.3-1.1,0.4-1.7,0.4c-0.7,0-1.3-0.1-1.8-0.4s-0.9-0.6-1.3-1s-0.6-0.9-0.8-1.5c-0.2-0.6-0.3-1.2-0.3-1.8
		c0-0.6,0.1-1.1,0.2-1.7c0.1-0.6,0.4-1.1,0.7-1.6c0.3-0.5,0.8-0.9,1.3-1.2c0.6-0.3,1.2-0.5,2-0.5c0.6,0,1.1,0.1,1.6,0.4
		s0.9,0.6,1.2,1.2h0V9.7h1.4v8.5C47.1,19.7,46.8,20.9,46.1,21.6z M44.1,17.4c0.4-0.2,0.6-0.5,0.9-0.8c0.2-0.3,0.4-0.7,0.5-1.2
		c0.1-0.4,0.2-0.9,0.2-1.3c0-0.4,0-0.8-0.1-1.2c-0.1-0.4-0.2-0.8-0.5-1.1c-0.2-0.3-0.5-0.6-0.8-0.8c-0.3-0.2-0.7-0.3-1.2-0.3
		c-0.5,0-0.9,0.1-1.3,0.3c-0.3,0.2-0.6,0.4-0.9,0.7c-0.2,0.3-0.4,0.7-0.5,1.1c-0.1,0.4-0.2,0.8-0.2,1.3c0,0.4,0,0.8,0.1,1.3
		c0.1,0.4,0.2,0.8,0.4,1.1c0.2,0.3,0.5,0.6,0.8,0.8c0.3,0.2,0.8,0.3,1.3,0.3S43.8,17.7,44.1,17.4z"/>
	<path class="st1" d="M50.9,9.7v1.5h0c0.6-1.1,1.6-1.7,3-1.7c0.6,0,1.1,0.1,1.5,0.3c0.4,0.2,0.7,0.4,1,0.7c0.3,0.3,0.4,0.7,0.5,1.1
		c0.1,0.4,0.2,0.9,0.2,1.4V19h-1.5v-6.3c0-0.6-0.2-1-0.5-1.4s-0.8-0.5-1.4-0.5c-0.5,0-0.9,0.1-1.2,0.2c-0.3,0.1-0.6,0.3-0.9,0.6
		c-0.2,0.3-0.4,0.6-0.5,0.9c-0.1,0.4-0.2,0.7-0.2,1.2V19h-1.5V9.7H50.9z"/>
	<path class="st1" d="M66,18.4c-0.7,0.5-1.6,0.8-2.6,0.8c-0.7,0-1.4-0.1-1.9-0.4c-0.5-0.2-1-0.6-1.4-1s-0.7-0.9-0.8-1.5
		c-0.2-0.6-0.3-1.3-0.3-2c0-0.7,0.1-1.4,0.3-1.9c0.2-0.6,0.5-1.1,0.9-1.5c0.4-0.4,0.9-0.8,1.4-1c0.5-0.2,1.1-0.4,1.8-0.4
		c0.8,0,1.5,0.2,2.1,0.5c0.5,0.3,1,0.8,1.3,1.3c0.3,0.5,0.6,1.1,0.7,1.7s0.2,1.2,0.2,1.8h-7c0,0.4,0,0.8,0.1,1.2
		c0.1,0.4,0.3,0.7,0.5,1c0.2,0.3,0.5,0.5,0.9,0.7c0.4,0.2,0.8,0.3,1.3,0.3c0.6,0,1.2-0.2,1.6-0.5c0.4-0.3,0.7-0.8,0.8-1.4h1.5
		C67.2,17.1,66.7,17.9,66,18.4z M65.6,12.4c-0.1-0.3-0.3-0.6-0.6-0.8c-0.2-0.2-0.5-0.4-0.8-0.6c-0.3-0.1-0.7-0.2-1.1-0.2
		c-0.4,0-0.8,0.1-1.1,0.2s-0.6,0.3-0.8,0.6c-0.2,0.2-0.4,0.5-0.5,0.8c-0.1,0.3-0.2,0.7-0.2,1h5.3C65.9,13.1,65.8,12.8,65.6,12.4z"/>
	<path class="st1" d="M75.9,19v-1.3h0c-0.3,0.5-0.6,0.9-1.2,1.1c-0.5,0.2-1.1,0.3-1.8,0.3c-0.7,0-1.3-0.1-1.9-0.4
		c-0.5-0.3-1-0.6-1.3-1.1c-0.4-0.4-0.6-1-0.8-1.5s-0.3-1.2-0.3-1.9s0.1-1.3,0.3-1.9c0.2-0.6,0.4-1.1,0.8-1.5c0.4-0.4,0.8-0.8,1.3-1
		c0.5-0.3,1.2-0.4,1.9-0.4c0.2,0,0.5,0,0.8,0.1s0.6,0.1,0.8,0.2c0.3,0.1,0.5,0.3,0.8,0.5c0.2,0.2,0.5,0.4,0.6,0.7h0V6.1h1.5V19H75.9
		z M70.4,15.7c0.1,0.4,0.3,0.8,0.5,1.1c0.2,0.3,0.5,0.6,0.9,0.8s0.8,0.3,1.3,0.3c0.5,0,1-0.1,1.3-0.3c0.4-0.2,0.7-0.5,0.9-0.8
		c0.2-0.3,0.4-0.7,0.5-1.1s0.2-0.8,0.2-1.3c0-0.5-0.1-0.9-0.2-1.3s-0.3-0.8-0.5-1.1s-0.5-0.6-0.9-0.8c-0.4-0.2-0.8-0.3-1.4-0.3
		c-0.5,0-1,0.1-1.3,0.3c-0.4,0.2-0.6,0.5-0.9,0.8c-0.2,0.3-0.4,0.7-0.5,1.2c-0.1,0.4-0.1,0.9-0.1,1.3C70.2,14.9,70.3,15.3,70.4,15.7
		z"/>
	<path class="st1" d="M93,19c-0.3,0.2-0.6,0.2-1.1,0.2c-0.4,0-0.7-0.1-0.9-0.3s-0.4-0.6-0.4-1.1c-0.4,0.5-0.9,0.9-1.5,1.1
		c-0.6,0.2-1.2,0.3-1.8,0.3c-0.4,0-0.8,0-1.2-0.1c-0.4-0.1-0.7-0.2-1-0.5c-0.3-0.2-0.5-0.5-0.7-0.8s-0.2-0.7-0.2-1.2
		c0-0.5,0.1-1,0.3-1.3c0.2-0.3,0.4-0.6,0.7-0.8s0.6-0.4,1-0.5c0.4-0.1,0.8-0.2,1.2-0.3c0.4-0.1,0.8-0.1,1.2-0.2c0.4,0,0.7-0.1,1-0.2
		s0.5-0.2,0.7-0.3c0.2-0.2,0.3-0.4,0.3-0.7c0-0.3-0.1-0.6-0.2-0.8s-0.3-0.4-0.5-0.5c-0.2-0.1-0.4-0.2-0.7-0.2s-0.5-0.1-0.7-0.1
		c-0.6,0-1.2,0.1-1.6,0.4c-0.4,0.2-0.7,0.7-0.7,1.4h-1.5c0-0.6,0.1-1.1,0.4-1.5c0.2-0.4,0.5-0.7,0.9-1s0.8-0.4,1.2-0.5
		c0.5-0.1,1-0.2,1.5-0.2c0.4,0,0.8,0,1.3,0.1c0.4,0.1,0.8,0.2,1.1,0.4c0.3,0.2,0.6,0.4,0.8,0.8c0.2,0.3,0.3,0.8,0.3,1.3v4.8
		c0,0.4,0,0.6,0.1,0.8s0.2,0.3,0.4,0.3c0.1,0,0.3,0,0.5-0.1V19z M90.5,14.2c-0.2,0.1-0.4,0.2-0.8,0.3c-0.3,0.1-0.6,0.1-1,0.2
		c-0.3,0-0.7,0.1-1,0.1c-0.3,0.1-0.7,0.1-0.9,0.3c-0.3,0.1-0.5,0.3-0.7,0.5c-0.2,0.2-0.3,0.5-0.3,0.9c0,0.3,0.1,0.5,0.2,0.6
		c0.1,0.2,0.2,0.3,0.4,0.4s0.4,0.2,0.6,0.2c0.2,0,0.4,0.1,0.7,0.1c0.5,0,0.9-0.1,1.3-0.2c0.4-0.1,0.7-0.3,0.9-0.5
		c0.2-0.2,0.4-0.4,0.5-0.7c0.1-0.2,0.2-0.5,0.2-0.7V14.2z"/>
	<path class="st1" d="M95.9,9.7v1.5h0c0.6-1.1,1.6-1.7,3-1.7c0.6,0,1.1,0.1,1.5,0.3c0.4,0.2,0.7,0.4,1,0.7c0.3,0.3,0.4,0.7,0.5,1.1
		c0.1,0.4,0.2,0.9,0.2,1.4V19h-1.5v-6.3c0-0.6-0.2-1-0.5-1.4s-0.8-0.5-1.4-0.5c-0.5,0-0.9,0.1-1.2,0.2c-0.3,0.1-0.6,0.3-0.9,0.6
		c-0.2,0.3-0.4,0.6-0.5,0.9C96,12.9,96,13.3,96,13.7V19h-1.5V9.7H95.9z"/>
	<path class="st1" d="M111.2,19v-1.3h0c-0.3,0.5-0.6,0.9-1.2,1.1c-0.5,0.2-1.1,0.3-1.8,0.3c-0.7,0-1.3-0.1-1.9-0.4
		c-0.5-0.3-1-0.6-1.3-1.1c-0.4-0.4-0.6-1-0.8-1.5s-0.3-1.2-0.3-1.9s0.1-1.3,0.3-1.9c0.2-0.6,0.4-1.1,0.8-1.5c0.4-0.4,0.8-0.8,1.3-1
		c0.5-0.3,1.2-0.4,1.9-0.4c0.2,0,0.5,0,0.8,0.1s0.6,0.1,0.8,0.2c0.3,0.1,0.5,0.3,0.8,0.5c0.2,0.2,0.5,0.4,0.6,0.7h0V6.1h1.5V19
		H111.2z M105.7,15.7c0.1,0.4,0.3,0.8,0.5,1.1c0.2,0.3,0.5,0.6,0.9,0.8s0.8,0.3,1.3,0.3c0.5,0,1-0.1,1.3-0.3
		c0.4-0.2,0.7-0.5,0.9-0.8c0.2-0.3,0.4-0.7,0.5-1.1s0.2-0.8,0.2-1.3c0-0.5-0.1-0.9-0.2-1.3s-0.3-0.8-0.5-1.1s-0.5-0.6-0.9-0.8
		c-0.4-0.2-0.8-0.3-1.4-0.3c-0.5,0-1,0.1-1.3,0.3c-0.4,0.2-0.6,0.5-0.9,0.8c-0.2,0.3-0.4,0.7-0.5,1.2c-0.1,0.4-0.1,0.9-0.1,1.3
		C105.6,14.9,105.6,15.3,105.7,15.7z"/>
	<path class="st1" d="M121.7,6.1V11h0c0.3-0.5,0.6-0.9,1.2-1.1s1.1-0.4,1.8-0.4c0.7,0,1.3,0.1,1.9,0.4c0.5,0.3,1,0.6,1.3,1.1
		c0.4,0.4,0.6,1,0.8,1.6c0.2,0.6,0.3,1.2,0.3,1.9s-0.1,1.3-0.3,1.9s-0.4,1.1-0.8,1.5c-0.4,0.4-0.8,0.8-1.3,1
		c-0.5,0.3-1.2,0.4-1.9,0.4c-0.2,0-0.5,0-0.8-0.1c-0.3,0-0.6-0.1-0.8-0.2c-0.3-0.1-0.5-0.3-0.8-0.4c-0.2-0.2-0.5-0.4-0.6-0.7h0V19
		h-1.5V6.1H121.7z M127.2,13c-0.1-0.4-0.3-0.8-0.5-1.1c-0.2-0.3-0.5-0.6-0.9-0.8c-0.4-0.2-0.8-0.3-1.3-0.3c-0.5,0-1,0.1-1.3,0.3
		s-0.7,0.5-0.9,0.8c-0.2,0.3-0.4,0.7-0.5,1.1c-0.1,0.4-0.2,0.8-0.2,1.3c0,0.5,0.1,0.9,0.2,1.3c0.1,0.4,0.3,0.8,0.5,1.1
		s0.5,0.6,0.9,0.8c0.4,0.2,0.8,0.3,1.4,0.3c0.5,0,1-0.1,1.3-0.3c0.4-0.2,0.6-0.5,0.9-0.8s0.4-0.7,0.5-1.2c0.1-0.4,0.1-0.9,0.1-1.3
		C127.4,13.8,127.3,13.4,127.2,13z"/>
	<path class="st1" d="M137.1,19v-1.5h0c-0.3,0.6-0.7,1-1.2,1.3c-0.5,0.3-1.1,0.4-1.8,0.4c-0.6,0-1.1-0.1-1.5-0.2
		c-0.4-0.2-0.7-0.4-1-0.7c-0.3-0.3-0.4-0.7-0.5-1.1c-0.1-0.4-0.2-0.9-0.2-1.4V9.7h1.5V16c0,0.6,0.2,1,0.5,1.4s0.8,0.5,1.4,0.5
		c0.5,0,0.9-0.1,1.2-0.2c0.3-0.1,0.6-0.3,0.9-0.6c0.2-0.3,0.4-0.6,0.5-0.9c0.1-0.4,0.2-0.7,0.2-1.2V9.7h1.5V19H137.1z"/>
	<path class="st1" d="M140.9,8V6.1h1.5V8H140.9z M142.4,9.7V19h-1.5V9.7H142.4z"/>
	<path class="st1" d="M146.4,6.1V19h-1.5V6.1H146.4z"/>
	<path class="st1" d="M152.8,9.7V11h-1.9v5.8c0,0.2,0,0.3,0,0.4c0,0.1,0.1,0.2,0.2,0.3c0.1,0.1,0.2,0.1,0.4,0.1c0.1,0,0.3,0,0.6,0
		h0.7V19h-1.2c-0.4,0-0.7,0-1-0.1s-0.5-0.2-0.7-0.3c-0.2-0.1-0.3-0.3-0.4-0.6c-0.1-0.3-0.1-0.6-0.1-1V11h-1.6V9.7h1.6V6.9h1.5v2.8
		H152.8z"/>
	<path class="st1" d="M161.1,6.1V11h0c0.3-0.5,0.6-0.9,1.2-1.1c0.5-0.2,1.1-0.4,1.8-0.4c0.7,0,1.3,0.1,1.9,0.4
		c0.5,0.3,1,0.6,1.3,1.1c0.4,0.4,0.6,1,0.8,1.6c0.2,0.6,0.3,1.2,0.3,1.9s-0.1,1.3-0.3,1.9s-0.4,1.1-0.8,1.5c-0.4,0.4-0.8,0.8-1.3,1
		s-1.2,0.4-1.9,0.4c-0.2,0-0.5,0-0.8-0.1c-0.3,0-0.6-0.1-0.8-0.2c-0.3-0.1-0.5-0.3-0.8-0.4c-0.2-0.2-0.5-0.4-0.6-0.7h0V19h-1.5V6.1
		H161.1z M166.6,13c-0.1-0.4-0.3-0.8-0.5-1.1c-0.2-0.3-0.5-0.6-0.9-0.8c-0.4-0.2-0.8-0.3-1.3-0.3c-0.5,0-1,0.1-1.3,0.3
		c-0.4,0.2-0.7,0.5-0.9,0.8c-0.2,0.3-0.4,0.7-0.5,1.1c-0.1,0.4-0.2,0.8-0.2,1.3c0,0.5,0.1,0.9,0.2,1.3s0.3,0.8,0.5,1.1
		s0.5,0.6,0.9,0.8c0.4,0.2,0.8,0.3,1.4,0.3c0.5,0,1-0.1,1.3-0.3c0.4-0.2,0.6-0.5,0.9-0.8c0.2-0.3,0.4-0.7,0.5-1.2
		c0.1-0.4,0.1-0.9,0.1-1.3C166.7,13.8,166.7,13.4,166.6,13z"/>
	<path class="st1" d="M173.8,20.2c-0.2,0.5-0.4,0.8-0.5,1.2c-0.2,0.3-0.4,0.6-0.6,0.8s-0.4,0.3-0.7,0.4c-0.3,0.1-0.6,0.1-0.9,0.1
		c-0.2,0-0.4,0-0.5,0c-0.2,0-0.4-0.1-0.5-0.1v-1.4c0.1,0.1,0.3,0.1,0.5,0.2c0.2,0,0.3,0.1,0.4,0.1c0.3,0,0.6-0.1,0.8-0.2
		c0.2-0.2,0.4-0.4,0.5-0.6l0.6-1.6l-3.7-9.3h1.7l2.7,7.6h0l2.6-7.6h1.6L173.8,20.2z"/>
</g>
<g id="Grupo_4" transform="translate(1818.587 1736)">
	<g>
		<g id="Grupo_3" transform="translate(-33 -2)">
			<path id="Trazado_22" class="st2" d="M-1596.9-1734h-4.5l0,15.8c0,3.4,2.1,5.2,5,5.2c1.2-0.1,2.4-0.3,3.6-0.6v-2.8
				c-0.8,0-1.7,0-2.5-0.2c-1.1-0.2-1.8-1.3-1.6-2.4l0-6.5l4.3,0l0-3.1l-4.3,0L-1596.9-1734z"/>
			<path id="Trazado_23" class="st2" d="M-1575.2-1724.2c2.1-0.5,3.6-2.4,3.6-4.5c0-3.2-2.8-5.2-7.4-5.2l-9.5,0l-0.1,20.7h9.9
				c4.8,0,7.8-2.2,7.8-5.7C-1570.8-1721.6-1572.7-1723.8-1575.2-1724.2 M-1583.9-1730.2l4.6,0c1.8,0,2.8,0.8,2.8,2.2
				c0,1.4-1.1,2.3-2.8,2.3l-4.6,0L-1583.9-1730.2z M-1579.3-1717.1l-4.6,0l0-4.9l4.6,0c2.2,0,3.5,0.9,3.5,2.4
				C-1575.8-1718-1577.1-1717.1-1579.3-1717.1"/>
			<path id="Trazado_24" class="st2" d="M-1562.5-1721.7l10,0l0-3.9l-10,0l0-4.5l11.1,0l0-3.9h-15.8v20.7h16.1l0-3.9l-11.4,0
				L-1562.5-1721.7z"/>
			<path id="Trazado_25" class="st2" d="M-1544.3-1717.9c-1.4,0-2.5,1.1-2.5,2.5c0,1.4,1.1,2.5,2.5,2.5c1.4,0,2.5-1.1,2.5-2.5
				C-1541.8-1716.8-1542.8-1717.9-1544.3-1717.9C-1544.2-1717.9-1544.2-1717.9-1544.3-1717.9 M-1544.3-1713.5c-1.1,0-2-0.9-2-2
				c0-1.1,0.9-2,2-2c1.1,0,2,0.9,2,2c0,0,0,0,0,0C-1542.3-1714.4-1543.1-1713.5-1544.3-1713.5
				C-1544.2-1713.5-1544.2-1713.5-1544.3-1713.5"/>
			<path id="Trazado_26" class="st2" d="M-1543.2-1715.9c0-0.5-0.4-0.8-0.9-0.8h-1l0,2.3h0.5v-0.7h0.4l0.6,0.7h0.6l-0.7-0.8
				C-1543.4-1715.3-1543.2-1715.6-1543.2-1715.9 M-1544.1-1715.6h-0.6v-0.7h0.6c0.3,0,0.4,0.1,0.4,0.3
				C-1543.7-1715.7-1543.9-1715.6-1544.1-1715.6"/>
		</g>
	</g>
</g>
</svg>
