<svg id="Grupo_471" data-name="Grupo 471" xmlns="http://www.w3.org/2000/svg" width="33.846" height="33.818" viewBox="0 0 33.846 33.818">
  <path id="Trazado_238" data-name="Trazado 238" d="M604.608,569.512a13.978,13.978,0,0,1-7.676-2.294l-5.353,1.7,1.727-5.155a13.7,13.7,0,0,1-2.662-8.129,10.473,10.473,0,0,1,.085-1.331,13.97,13.97,0,0,1,27.813.255c.029.368.029.736.029,1.076a13.938,13.938,0,0,1-13.963,13.879Zm7.618-10.536c-.425-.2-2.407-1.189-2.775-1.331-.4-.113-.652-.2-.935.227a19.783,19.783,0,0,1-1.275,1.558c-.255.284-.481.312-.877.113a10.645,10.645,0,0,1-3.285-2.011,12.023,12.023,0,0,1-2.267-2.776c-.227-.425-.028-.623.17-.85a5.186,5.186,0,0,0,.622-.708.714.714,0,0,0,.142-.17,3.967,3.967,0,0,0,.255-.481.694.694,0,0,0-.027-.708c-.087-.2-.907-2.21-1.248-3-.339-.821-.679-.68-.906-.68-.254,0-.509-.029-.792-.029a1.393,1.393,0,0,0-1.077.51,4.516,4.516,0,0,0-1.217,4.73,8.878,8.878,0,0,0,1.444,2.8c.2.283,2.8,4.475,6.938,6.09,4.164,1.614,4.164,1.076,4.9,1.02a4.047,4.047,0,0,0,2.748-1.926,3.226,3.226,0,0,0,.226-1.926c-.085-.141-.368-.255-.765-.453Zm8.979-3.739a16.6,16.6,0,0,0-33.168-.312,5.919,5.919,0,0,0-.028.708,16.484,16.484,0,0,0,2.38,8.525l-3,8.837,9.2-2.917a16.656,16.656,0,0,0,24.642-14.445c0-.141-.028-.255-.028-.4Z" transform="translate(-587.387 -539.178)" fill="#707070" fill-rule="evenodd"/>
</svg>
