<svg xmlns="http://www.w3.org/2000/svg" width="40.129" height="40.129" viewBox="0 0 40.129 40.129">
  <g id="Grupo_529" data-name="Grupo 529" transform="translate(-1802 -6626)">
    <rect id="Rectángulo_53" data-name="Rectángulo 53" width="40.129" height="40.129" rx="3" transform="translate(1802 6626)" fill="#fff8ed"/>
    <g id="Grupo_471" data-name="Grupo 471" transform="translate(1809.166 6633.166)">
      <path id="Trazado_238" data-name="Trazado 238" d="M600.59,562.436a10.717,10.717,0,0,1-5.886-1.759l-4.1,1.3,1.324-3.953a10.5,10.5,0,0,1-2.041-6.233,8.036,8.036,0,0,1,.065-1.021,10.711,10.711,0,0,1,21.325.2c.022.282.022.565.022.825a10.686,10.686,0,0,1-10.706,10.641Zm5.841-8.078c-.326-.152-1.846-.912-2.128-1.021-.3-.087-.5-.152-.717.174a15.167,15.167,0,0,1-.978,1.194c-.2.218-.369.239-.673.087a8.161,8.161,0,0,1-2.519-1.542,9.218,9.218,0,0,1-1.738-2.128c-.174-.326-.022-.478.131-.652a3.978,3.978,0,0,0,.477-.543.547.547,0,0,0,.109-.13,3.047,3.047,0,0,0,.2-.369.532.532,0,0,0-.021-.542c-.067-.152-.7-1.694-.957-2.3-.26-.63-.52-.521-.695-.521-.2,0-.391-.022-.607-.022a1.068,1.068,0,0,0-.825.391,3.462,3.462,0,0,0-.933,3.626,6.808,6.808,0,0,0,1.107,2.15,12.6,12.6,0,0,0,5.32,4.669c3.193,1.238,3.193.825,3.757.782a3.1,3.1,0,0,0,2.107-1.477,2.473,2.473,0,0,0,.174-1.477c-.065-.108-.282-.2-.587-.347Zm6.885-2.866a12.727,12.727,0,0,0-25.43-.239,4.535,4.535,0,0,0-.022.543,12.639,12.639,0,0,0,1.825,6.536l-2.3,6.776,7.057-2.237a12.771,12.771,0,0,0,18.893-11.075c0-.108-.021-.2-.021-.3Z" transform="translate(-587.387 -539.178)" fill="#091b43" fill-rule="evenodd"/>
    </g>
  </g>
</svg>
